<?xml version="1.0" encoding="UTF-8"?><svg xmlns="http://www.w3.org/2000/svg" viewBox="0 0 18.48 18.48"><g id="a"/><g id="b"><g id="c"><g><rect x="7.42" y="7.42" width="3.63" height="3.63" rx=".79" ry=".79" transform="translate(0 18.48) rotate(-90)"/><g><path d="M8.73,13.6v4c0,.48-.39,.87-.87,.87H.87c-.48,0-.87-.39-.87-.87v-6.99c0-.48,.39-.87,.87-.87H4.88v2.98c0,.48,.39,.87,.87,.87h2.98Z"/><path d="M18.48,.87V7.85c0,.48-.39,.87-.87,.87h-4.01v-2.98c0-.48-.39-.87-.87-.87h-2.98V.87c0-.48,.39-.87,.87-.87h6.99c.48,0,.87,.39,.87,.87Z"/><path d="M18.48,10.62v6.99c0,.48-.39,.87-.87,.87h-6.99c-.48,0-.87-.39-.87-.87v-4h2.98c.48,0,.87-.39,.87-.87v-2.98h4.01c.48,0,.87,.39,.87,.87Z"/><path d="M8.73,.87V4.88h-2.98c-.48,0-.87,.39-.87,.87v2.98H.87c-.48,0-.87-.39-.87-.87V.87C0,.39,.39,0,.87,0H7.86c.48,0,.87,.39,.87,.87Z"/></g></g></g></g></svg>