<?xml version="1.0" encoding="UTF-8"?><svg xmlns="http://www.w3.org/2000/svg" viewBox="0 0 228.79 38.23"><defs><style>.d{letter-spacing:-.01em;}.e{letter-spacing:-.02em;}.f{font-family:Kanit-SemiBold, Kanit;font-size:20px;}</style></defs><g id="a"/><g id="b"><g id="c"><g><g><g><path d="M130.55,1.79v14.45c0,1-.83,1.81-1.85,1.81h-8.57v-6.17c0-.99-.83-1.79-1.85-1.79h-6.37V1.79c0-.99,.83-1.79,1.87-1.79h14.93c1.02,0,1.85,.81,1.85,1.79Z"/><path d="M130.55,21.97v14.45c0,1-.83,1.81-1.85,1.81h-14.93c-1.03,0-1.87-.81-1.87-1.81v-8.28h6.37c1.02,0,1.85-.81,1.85-1.81v-6.16h8.57c1.02,0,1.85,.81,1.85,1.79Z"/></g><g><path d="M18.65,28.14v8.28c0,1-.83,1.81-1.85,1.81H1.87c-1.03,0-1.87-.81-1.87-1.81v-14.45c0-.99,.83-1.79,1.87-1.79H10.42v6.16c0,1,.83,1.81,1.87,1.81h6.36Z"/><path d="M18.65,1.79V10.09h-6.36c-1.03,0-1.87,.81-1.87,1.79v6.17H1.87c-1.03,0-1.87-.81-1.87-1.81V1.79C0,.81,.83,0,1.87,0h14.93c1.02,0,1.85,.81,1.85,1.79Z"/></g></g><text class="f" transform="translate(21.89 24.88)"><tspan class="d" x="0" y="0">F</tspan><tspan x="10.3" y="0">ix-P</tspan><tspan class="e" x="49.58" y="0">o</tspan><tspan x="61.12" y="0">int</tspan></text><g><rect x="23.27" y="32.62" width="25" height="5" rx=".67" ry=".67"/><rect x="52.77" y="32.62" width="25" height="5" rx=".67" ry=".67"/><rect x="82.27" y="32.62" width="25" height="5" rx=".67" ry=".67"/><rect x="23.27" y=".62" width="25" height="5" rx=".67" ry=".67"/><rect x="52.77" y=".62" width="25" height="5" rx=".67" ry=".67"/><rect x="82.27" y=".62" width="25" height="5" rx=".67" ry=".67"/></g><rect x="137.27" y="32.62" width="91.52" height="5" rx=".67" ry=".67"/></g></g></g></svg>