<?xml version="1.0" encoding="UTF-8"?><svg xmlns="http://www.w3.org/2000/svg" viewBox="0 0 373.05 373"><defs><style>.d{fill:#fff;}</style></defs><g id="a"/><g id="b"><g id="c"><g><path class="d" d="M370.95,181.18l-81.85-81.85c-2.8-2.8-7.35-2.8-10.15,0l-81.85,81.85c-2.8,2.8-2.8,7.35,0,10.15l81.85,81.85c2.8,2.8,7.35,2.8,10.15,0l81.85-81.85c2.8-2.8,2.8-7.35,0-10.15Zm-56.01,39.51c-3.2,1.07-6.59,1.91-10.17,2.51-3.58,.61-7.62,.92-12.12,.92-12.87,0-22.68-3.3-29.42-9.89-6.75-6.59-10.12-15.75-10.12-27.48s3.3-21.75,9.89-28.46c6.59-6.7,16.43-10.06,29.54-10.06,4.49,0,8.51,.35,12.06,1.03,3.54,.69,6.95,1.6,10.22,2.74v16.12c-6.62-2.74-13.6-4.12-20.91-4.12s-13.2,1.83-16.74,5.49c-3.55,3.66-5.32,9.41-5.32,17.26s1.87,12.95,5.6,16.45c3.73,3.51,9.3,5.26,16.69,5.26,3.58,0,7.12-.32,10.63-.97,3.5-.65,6.89-1.66,10.17-3.03v16.23Z"/><path class="d" d="M101.94,172.34c1.3,3.41,1.94,8.25,1.94,14.51s-.72,10.92-2.17,14.21c-1.45,3.29-3.56,5.54-6.34,6.75-2.78,1.22-6.21,1.82-10.28,1.82h-11.27v-46.51h11.27c4.38,0,7.97,.69,10.75,2.06,2.78,1.37,4.81,3.76,6.1,7.16Z"/><path class="d" d="M175.95,181.31L94.1,99.45c-2.8-2.8-7.35-2.8-10.15,0L2.1,181.31c-2.8,2.8-2.8,7.34,0,10.14l81.85,81.86c2.8,2.8,7.35,2.8,10.15,0l81.85-81.86c2.8-2.8,2.8-7.34,0-10.14Zm-61.79,33.96c-5.99,5.95-14.82,8.93-26.49,8.93H54.91v-75.64h32.76c7.68,0,14.14,1.27,19.38,3.82,5.25,2.54,9.24,6.62,11.98,12.21,2.74,5.6,4.11,13.02,4.11,22.26,0,13-2.99,22.47-8.98,28.42Z"/><rect class="d" x="121.05" y="218.92" width="130.11" height="130.11" rx="7.17" ry="7.17" transform="translate(116.9 616.37) rotate(-135)"/><rect class="d" x="121.05" y="23.97" width="130.11" height="130.11" rx="7.17" ry="7.17" transform="translate(254.75 283.58) rotate(-135)"/></g></g></g></svg>