<?xml version="1.0" encoding="UTF-8"?><svg xmlns="http://www.w3.org/2000/svg" viewBox="0 0 373.13 373"><defs><style>.d{fill:#fff;}.e{fill:none;stroke:#000;stroke-miterlimit:10;stroke-width:3px;}</style></defs><g id="a"/><g id="b"><g id="c"><g><rect class="d" x="219.05" y="121.2" width="130.11" height="130.11" rx="7.17" ry="7.17" transform="translate(-48.49 255.44) rotate(-45)"/><rect class="d" x="23.97" y="121.45" width="130.11" height="130.11" rx="7.17" ry="7.17" transform="translate(-105.8 117.58) rotate(-45)"/><path class="e" d="M253.11,189.74c0-12.27,3.29-21.75,9.89-28.46,6.59-6.7,16.44-10.06,29.54-10.06,4.49,0,8.51,.34,12.06,1.03,3.54,.69,6.95,1.6,10.23,2.74v16.11c-6.63-2.74-13.6-4.11-20.91-4.11s-13.2,1.83-16.74,5.49c-3.54,3.66-5.31,9.41-5.31,17.26s1.87,12.95,5.6,16.46c3.73,3.51,9.29,5.26,16.69,5.26,3.58,0,7.12-.32,10.63-.97,3.5-.65,6.89-1.66,10.17-3.03v16.23c-3.2,1.07-6.59,1.91-10.17,2.51-3.58,.61-7.62,.91-12.11,.91-12.88,0-22.69-3.29-29.43-9.89-6.74-6.59-10.11-15.75-10.11-27.49"/><path class="e" d="M54.99,224.07v-75.64h32.77c7.67,0,14.13,1.27,19.38,3.82,5.24,2.54,9.24,6.62,11.98,12.22,2.74,5.6,4.11,13.02,4.11,22.26,0,13-2.99,22.47-8.98,28.42-5.99,5.95-14.82,8.93-26.49,8.93H54.99Zm18.91-14.56h11.27c4.07,0,7.5-.61,10.28-1.82,2.78-1.21,4.89-3.46,6.34-6.75,1.45-3.29,2.17-8.02,2.17-14.21s-.65-11.1-1.94-14.51c-1.29-3.41-3.33-5.79-6.11-7.16-2.78-1.37-6.36-2.06-10.75-2.06h-11.27v46.51Z"/><rect class="d" x="121.1" y="218.92" width="130.11" height="130.11" rx="7.17" ry="7.17" transform="translate(116.98 616.4) rotate(-135)"/><rect class="d" x="121.1" y="23.97" width="130.11" height="130.11" rx="7.17" ry="7.17" transform="translate(254.82 283.61) rotate(-135)"/></g></g></g></svg>