<?xml version="1.0" encoding="UTF-8"?><svg xmlns="http://www.w3.org/2000/svg" viewBox="0 0 284.33 284.34"><g id="a"/><g id="b"><g id="c"><g><path d="M207.71,68.66l-63.34,63.34c-1.21,1.21-3.19,1.21-4.4,0l-19.43-19.43c6.82-8.75,17.46-14.37,29.42-14.37,.87,0,1.74,.03,2.6,.09-3.34-.79-6.82-1.2-10.39-1.2-10.41,0-20.01,3.53-27.64,9.47l-37.9-37.9c-1.22-1.22-1.22-3.19,0-4.41L139.97,.91c1.21-1.21,3.19-1.21,4.4,0l63.34,63.34c1.22,1.22,1.22,3.19,0,4.41Z"/><path d="M106.6,169.77l-37.94,37.94c-1.22,1.22-3.19,1.22-4.41,0L.91,144.37c-1.21-1.21-1.21-3.19,0-4.4l63.34-63.34c1.22-1.22,3.19-1.22,4.41,0l37.9,37.9c-6.28,8.06-9.86,18.3-9.44,29.39,.36,9.69,3.86,18.64,9.48,25.85Z"/><path d="M132,144.37l-12.53,12.53c-3.82-5.4-6.23-11.83-6.71-18.77-.37-5.39,.41-10.57,2.11-15.29l17.13,17.13c1.21,1.21,1.21,3.19,0,4.4Z"/><path d="M283.43,144.37l-63.34,63.34c-1.22,1.22-3.19,1.22-4.41,0l-37.9-37.9c5.94-7.63,9.47-17.23,9.47-27.64,0-1.17-.04-2.33-.13-3.47-.9,10.64-6.28,20.01-14.24,26.21l-20.54-20.54c-1.21-1.21-1.21-3.19,0-4.4l63.34-63.34c1.22-1.22,3.19-1.22,4.41,0l63.34,63.34c1.21,1.21,1.21,3.19,0,4.4Z"/><path d="M162.61,170.58c-4.54,1.64-9.49,2.42-14.65,2.15-7.73-.4-14.88-3.22-20.69-7.69l12.7-12.7c1.21-1.21,3.19-1.21,4.4,0l18.24,18.24Z"/><path d="M207.71,220.09l-63.34,63.34c-1.21,1.21-3.19,1.21-4.4,0l-63.34-63.34c-1.22-1.22-1.22-3.19,0-4.41l37.94-37.94c7.21,5.62,16.16,9.11,25.85,9.48,11.09,.42,21.33-3.16,29.39-9.44l37.9,37.9c1.22,1.22,1.22,3.19,0,4.41Z"/></g></g></g></svg>